<svg width="40" height="32" viewBox="0 0 40 32" fill="none" xmlns="http://www.w3.org/2000/svg">
<path d="M18.505 29.7809C23.6441 28.8731 27.8886 28.1219 27.9374 28.1116L28.026 28.0928L23.1742 22.3217C20.5058 19.1476 18.3225 16.5383 18.3225 16.5233C18.3225 16.4948 23.3323 2.6987 23.3605 2.64958C23.3699 2.6332 26.7793 8.5194 31.6251 16.9181C36.1617 24.7812 39.902 31.2643 39.9368 31.3251L40 31.4355L24.5806 31.4335L9.16123 31.4316L18.505 29.7809ZM0 28.0211C0 28.0129 2.28614 24.0444 5.08031 19.202L10.1606 10.3978L16.0811 5.42927C19.3374 2.6966 22.0104 0.457427 22.0211 0.453231C22.0319 0.449261 21.989 0.557072 21.9259 0.692927C21.8629 0.828781 18.9699 7.03392 15.4971 14.4821L9.18293 28.0243L4.59147 28.0301C2.06616 28.0332 0 28.0292 0 28.0211Z" fill="white"/>
</svg>
