<svg width="120" height="120" viewBox="0 0 120 120" fill="none" xmlns="http://www.w3.org/2000/svg">
<g clip-path="url(#clip0_2946_7755)">
<path d="M60 120C93.1371 120 120 93.1371 120 60C120 26.8629 93.1371 0 60 0C26.8629 0 0 26.8629 0 60C0 93.1371 26.8629 120 60 120Z" fill="#1A2A5C"/>
<path d="M68.4445 119.406C91.9807 116.09 111.129 99.1217 117.623 76.7654L84.8238 43.9662L73.2562 44.866L59.1823 30.792L53.5355 35.2191L52.7948 36.2293L42.8862 45.6261L60.4627 63.2025L26.6667 77.6281L68.4445 119.406Z" fill="#121149"/>
<path d="M26.6667 77.628C26.6667 64.0759 37.653 53.0898 51.2048 53.0898C64.7566 53.0898 75.743 64.0762 75.743 77.628H26.6667Z" fill="#B42ACC"/>
<path d="M51.5827 53.0996V77.6281H75.743C75.743 64.2027 64.9596 53.3021 51.5827 53.0996Z" fill="#702EBB"/>
<path d="M51.6 49.886C57.7046 49.886 62.6534 44.9373 62.6534 38.8327C62.6534 32.7281 57.7046 27.7793 51.6 27.7793C45.4954 27.7793 40.5466 32.7281 40.5466 38.8327C40.5466 44.9373 45.4954 49.886 51.6 49.886Z" fill="#B42ACC"/>
<path d="M51.6005 27.7783L51.5827 27.7788V49.8843L51.6005 49.8848C57.705 49.8848 62.6538 44.9362 62.6538 38.8314C62.6538 32.7269 57.705 27.7783 51.6005 27.7783Z" fill="#702EBB"/>
<path d="M88.7374 71.3673H85.1011V52.4882C85.1011 48.2859 81.682 44.8668 77.4801 44.8668C73.2778 44.8668 69.8587 48.2859 69.8587 52.4882V71.3673H66.2224V52.4882C66.2224 46.2805 71.2725 41.2305 77.4801 41.2305C83.6873 41.2305 88.7374 46.2805 88.7374 52.4882V71.3673Z" fill="white"/>
<path d="M77.4799 41.2295L77.4413 41.2302V44.8675C77.4541 44.8675 77.4668 44.8654 77.4799 44.8654C81.682 44.8654 85.1009 48.2844 85.1009 52.4868V71.3659H88.7372V52.4868C88.7374 46.2796 83.6873 41.2295 77.4799 41.2295Z" fill="#D0D1D3"/>
<path d="M90.7847 87.1945H64.1749C62.5971 87.1945 61.3179 85.9153 61.3179 84.3375V63.1148C61.3179 61.537 62.5971 60.2578 64.1749 60.2578H90.7847C92.3625 60.2578 93.6417 61.537 93.6417 63.1148V84.3375C93.6417 85.9153 92.3625 87.1945 90.7847 87.1945Z" fill="#FFC61B"/>
<path d="M90.7847 60.2588H77.4413V87.195H90.7847C92.3625 87.195 93.6417 85.9158 93.6417 84.338V63.1153C93.6417 61.538 92.3625 60.2588 90.7847 60.2588Z" fill="#EAA22F"/>
<path d="M81.3183 71.2915C81.3183 69.1716 79.5998 67.4531 77.4799 67.4531C75.36 67.4531 73.6416 69.1716 73.6416 71.2915C73.6416 72.7113 74.4145 73.9481 75.5609 74.6123V78.9101C75.5687 79.4139 75.7744 79.8945 76.1335 80.248C76.4926 80.6015 76.9763 80.7996 77.4802 80.7996C77.9841 80.7996 78.4678 80.6015 78.8268 80.248C79.1859 79.8945 79.3916 79.4139 79.3995 78.9101V74.6123C80.5451 73.9481 81.3183 72.7113 81.3183 71.2915Z" fill="#702EBB"/>
<path d="M77.4799 67.4531C77.467 67.4531 77.4544 67.4552 77.4413 67.4552V80.8256C77.4546 80.8261 77.4668 80.8296 77.4799 80.8296C77.9889 80.8295 78.4771 80.6273 78.837 80.2674C79.1969 79.9075 79.3992 79.4193 79.3992 78.9103V74.6126C80.5456 73.9488 81.3185 72.712 81.3185 71.2917C81.3183 69.1716 79.5996 67.4531 77.4799 67.4531Z" fill="#121149"/>
</g>
<defs>
<clipPath id="clip0_2946_7755">
<rect width="120" height="120" fill="white"/>
</clipPath>
</defs>
</svg>
