<svg width="382" height="40" viewBox="0 0 382 40" fill="none" xmlns="http://www.w3.org/2000/svg">
<g filter="url(#filter0_i_5713_1027)">
<path fill-rule="evenodd" clip-rule="evenodd" d="M26.0177 35.3467C23.1512 32.9048 21.9341 29.2502 21.6782 27.6011C21.6782 29.4933 22.4251 32.1034 22.7986 33.172C18.4913 29.7859 18.8046 25.7856 19.4996 24.2088C21.367 20.1006 26.0664 21.3351 28.1828 22.4659C26.4863 20.294 24.7898 20.0476 22.9638 19.7823L22.7986 19.7583C20.0275 19.6461 18.0784 18.2644 17.7257 17.4863C16.0715 14.6531 17.6229 11.1057 18.9366 9.13219C25.8856 10.5138 31.1234 16.6454 31.1234 24.0004C31.1234 28.5154 29.1495 32.5695 26.0177 35.3467ZM18.3736 9.0313C15.5083 11.4034 14.3936 15.8226 14.3022 17.7042C13.879 24.1278 16.7816 28.8875 18.2859 30.4643C20.3907 33.1618 23.6179 34.8417 25.6994 35.6211C23.0657 37.8299 19.6701 39.1599 15.9639 39.1599C12.4499 39.1599 9.21523 37.9643 6.64436 35.9578L15.1425 28.5353L16.8543 29.6245C15.3293 27.9024 12.5843 22.7963 13.8043 16.1486L12.466 20.1011H3.81403L10.8165 25.2985L6.24284 35.6333C2.91865 32.8524 0.804321 28.6733 0.804321 24.0004C0.804321 15.628 7.59148 8.84082 15.9639 8.84082C16.784 8.84082 17.5889 8.90594 18.3736 9.0313ZM21.2425 17.6113C20.1081 17.6113 19.1885 16.6916 19.1885 15.5572C19.1885 14.4228 20.1081 13.5031 21.2425 13.5031C22.377 13.5031 23.2966 14.4228 23.2966 15.5572C23.2966 16.6916 22.377 17.6113 21.2425 17.6113Z" fill="white"/>
</g>
<path d="M22.4318 5.27171L23.4615 4.12813L21.9563 4.44807L19.7708 4.91262L18.6536 2.97761L17.8842 1.64493L17.7233 3.17535L17.4898 5.39746L15.3042 5.86201L13.799 6.18196L15.2048 6.80786L17.246 7.71665L17.0124 9.93877L16.8516 11.4692L17.8813 10.3256L19.3764 8.66515L21.4175 9.57395L22.8233 10.1998L22.0539 8.86717L20.9367 6.93216L22.4318 5.27171Z" fill="white" stroke="#5C2D91"/>
<path d="M51.8046 27.8125C51.8046 27.5114 51.7598 27.2428 51.6703 27.0068C51.5808 26.7627 51.418 26.5389 51.182 26.3354C50.946 26.132 50.6123 25.9285 50.181 25.7251C49.7497 25.5135 49.1841 25.2979 48.4843 25.0781C47.6867 24.8177 46.9258 24.5247 46.2015 24.1992C45.4854 23.8656 44.8466 23.479 44.285 23.0396C43.7235 22.6001 43.28 22.0874 42.9545 21.5015C42.6371 20.9155 42.4784 20.2319 42.4784 19.4507C42.4784 18.6938 42.6452 18.0103 42.9789 17.3999C43.3125 16.7896 43.7805 16.2687 44.3827 15.8374C44.9849 15.3979 45.6929 15.0643 46.5067 14.8364C47.3205 14.6004 48.2157 14.4824 49.1923 14.4824C50.4943 14.4824 51.6377 14.7144 52.6224 15.1782C53.6153 15.634 54.3884 16.2769 54.9418 17.1069C55.4952 17.9289 55.7719 18.8851 55.7719 19.9756H51.8168C51.8168 19.4954 51.715 19.0723 51.5116 18.7061C51.3163 18.3317 51.0152 18.0387 50.6083 17.8271C50.2095 17.6156 49.709 17.5098 49.1068 17.5098C48.5209 17.5098 48.0285 17.5993 47.6298 17.7783C47.2391 17.9492 46.9421 18.1852 46.7386 18.4863C46.5433 18.7874 46.4457 19.117 46.4457 19.4751C46.4457 19.7599 46.5189 20.0203 46.6654 20.2563C46.82 20.4842 47.0398 20.6999 47.3246 20.9033C47.6176 21.0986 47.9756 21.2858 48.3988 21.4648C48.822 21.6439 49.3062 21.8148 49.8514 21.9775C50.8036 22.2786 51.6459 22.6123 52.3783 22.9785C53.1189 23.3447 53.7414 23.7598 54.246 24.2236C54.7505 24.6875 55.1289 25.2124 55.3812 25.7983C55.6416 26.3843 55.7719 27.0475 55.7719 27.7881C55.7719 28.5775 55.6172 29.2773 55.308 29.8877C55.0069 30.498 54.5674 31.0189 53.9896 31.4502C53.42 31.8734 52.7364 32.1948 51.9388 32.4146C51.1413 32.6343 50.2502 32.7441 49.2655 32.7441C48.3703 32.7441 47.4873 32.6302 46.6166 32.4023C45.7458 32.1663 44.9564 31.8083 44.2484 31.3281C43.5485 30.848 42.987 30.2376 42.5638 29.4971C42.1488 28.7484 41.9413 27.8613 41.9413 26.8359H45.9208C45.9208 27.373 45.9981 27.8288 46.1527 28.2031C46.3073 28.5693 46.5271 28.8664 46.8119 29.0942C47.1049 29.3221 47.4589 29.4849 47.8739 29.5825C48.2889 29.6802 48.7528 29.729 49.2655 29.729C49.8596 29.729 50.3397 29.6476 50.7059 29.4849C51.0803 29.314 51.357 29.082 51.536 28.7891C51.715 28.4961 51.8046 28.1706 51.8046 27.8125ZM64.9218 29.314V19.292H68.7548V32.5H65.1659L64.9218 29.314ZM65.3246 26.6162L66.3744 26.5918C66.3744 27.4788 66.2686 28.2967 66.057 29.0454C65.8536 29.7941 65.5443 30.4451 65.1293 30.9985C64.7224 31.5519 64.2137 31.9832 63.6034 32.2925C63.0012 32.5936 62.2972 32.7441 61.4916 32.7441C60.8405 32.7441 60.2424 32.6546 59.6971 32.4756C59.16 32.2884 58.6962 31.9995 58.3055 31.6089C57.9149 31.2101 57.6138 30.7015 57.4022 30.083C57.1906 29.4564 57.0848 28.7077 57.0848 27.8369V19.292H60.8934V27.8613C60.8934 28.2031 60.9341 28.4961 61.0155 28.7402C61.105 28.9762 61.223 29.1715 61.3695 29.3262C61.5241 29.4808 61.7113 29.5947 61.931 29.668C62.1589 29.7412 62.4071 29.7778 62.6757 29.7778C63.3511 29.7778 63.8801 29.6395 64.2626 29.3628C64.6532 29.078 64.9258 28.6995 65.0804 28.2275C65.2432 27.7474 65.3246 27.2103 65.3246 26.6162ZM76.0004 29.7778C76.4073 29.7778 76.7613 29.7005 77.0624 29.5459C77.3635 29.3913 77.5954 29.1756 77.7582 28.8989C77.9291 28.6141 78.0145 28.2723 78.0145 27.8735H81.6034C81.6034 28.8338 81.3552 29.6802 80.8588 30.4126C80.3705 31.145 79.7113 31.7188 78.8812 32.1338C78.0511 32.5407 77.1153 32.7441 76.0736 32.7441C75.0482 32.7441 74.153 32.5773 73.3881 32.2437C72.6231 31.9019 71.9843 31.4258 71.4716 30.8154C70.9589 30.2051 70.5723 29.4971 70.3119 28.6914C70.0596 27.8776 69.9335 26.9987 69.9335 26.0547V25.7373C69.9335 24.8014 70.0596 23.9266 70.3119 23.1128C70.5723 22.299 70.9589 21.5869 71.4716 20.9766C71.9843 20.3662 72.619 19.8942 73.3759 19.5605C74.1408 19.2188 75.036 19.0479 76.0614 19.0479C77.1438 19.0479 78.1 19.2554 78.9301 19.6704C79.7683 20.0854 80.4234 20.6836 80.8954 21.4648C81.3674 22.238 81.6034 23.1698 81.6034 24.2603H78.0145C78.0145 23.8371 77.9372 23.4587 77.7826 23.125C77.6361 22.7832 77.4082 22.5146 77.099 22.3193C76.7979 22.1159 76.4235 22.0142 75.976 22.0142C75.5121 22.0142 75.1296 22.1159 74.8285 22.3193C74.5355 22.5146 74.3117 22.7873 74.1571 23.1372C74.0025 23.4871 73.8967 23.8859 73.8397 24.3335C73.7828 24.7729 73.7543 25.2409 73.7543 25.7373V26.0547C73.7543 26.5592 73.7828 27.0394 73.8397 27.4951C73.8967 27.9427 74.0025 28.3374 74.1571 28.6792C74.3199 29.021 74.5477 29.2896 74.8407 29.4849C75.1337 29.6802 75.5202 29.7778 76.0004 29.7778ZM88.2631 29.7778C88.67 29.7778 89.024 29.7005 89.3251 29.5459C89.6262 29.3913 89.8581 29.1756 90.0209 28.8989C90.1918 28.6141 90.2772 28.2723 90.2772 27.8735H93.8661C93.8661 28.8338 93.6179 29.6802 93.1215 30.4126C92.6332 31.145 91.974 31.7188 91.1439 32.1338C90.3138 32.5407 89.378 32.7441 88.3363 32.7441C87.3109 32.7441 86.4157 32.5773 85.6508 32.2437C84.8858 31.9019 84.2469 31.4258 83.7343 30.8154C83.2216 30.2051 82.835 29.4971 82.5746 28.6914C82.3223 27.8776 82.1962 26.9987 82.1962 26.0547V25.7373C82.1962 24.8014 82.3223 23.9266 82.5746 23.1128C82.835 22.299 83.2216 21.5869 83.7343 20.9766C84.2469 20.3662 84.8817 19.8942 85.6385 19.5605C86.4035 19.2188 87.2987 19.0479 88.3241 19.0479C89.4065 19.0479 90.3627 19.2554 91.1927 19.6704C92.031 20.0854 92.6861 20.6836 93.1581 21.4648C93.6301 22.238 93.8661 23.1698 93.8661 24.2603H90.2772C90.2772 23.8371 90.1999 23.4587 90.0453 23.125C89.8988 22.7832 89.6709 22.5146 89.3617 22.3193C89.0606 22.1159 88.6862 22.0142 88.2386 22.0142C87.7748 22.0142 87.3923 22.1159 87.0912 22.3193C86.7982 22.5146 86.5744 22.7873 86.4198 23.1372C86.2652 23.4871 86.1594 23.8859 86.1024 24.3335C86.0455 24.7729 86.017 25.2409 86.017 25.7373V26.0547C86.017 26.5592 86.0455 27.0394 86.1024 27.4951C86.1594 27.9427 86.2652 28.3374 86.4198 28.6792C86.5826 29.021 86.8104 29.2896 87.1034 29.4849C87.3964 29.6802 87.7829 29.7778 88.2631 29.7778ZM101.234 32.7441C100.184 32.7441 99.244 32.5773 98.4139 32.2437C97.5839 31.91 96.8799 31.4502 96.3021 30.8643C95.7325 30.2702 95.2971 29.5866 94.996 28.8135C94.6949 28.0404 94.5443 27.2144 94.5443 26.3354V25.8716C94.5443 24.8869 94.6827 23.9795 94.9594 23.1494C95.236 22.3193 95.6389 21.5991 96.1678 20.9888C96.705 20.3703 97.3641 19.8942 98.1454 19.5605C98.9266 19.2188 99.8177 19.0479 100.819 19.0479C101.755 19.0479 102.589 19.2025 103.321 19.5117C104.054 19.8128 104.672 20.2482 105.177 20.8179C105.681 21.3794 106.064 22.0589 106.324 22.8564C106.593 23.6458 106.727 24.5329 106.727 25.5176V27.0801H96.0824V24.6265H102.992V24.3335C102.992 23.8696 102.906 23.4627 102.735 23.1128C102.572 22.7629 102.328 22.4943 102.003 22.3071C101.685 22.1118 101.283 22.0142 100.794 22.0142C100.33 22.0142 99.9439 22.1118 99.6346 22.3071C99.3254 22.5024 99.0772 22.7791 98.89 23.1372C98.711 23.4871 98.5808 23.8981 98.4994 24.3701C98.418 24.834 98.3773 25.3345 98.3773 25.8716V26.3354C98.3773 26.8481 98.4465 27.3161 98.5848 27.7393C98.7232 28.1624 98.9266 28.5246 99.1952 28.8257C99.4637 29.1268 99.7893 29.3628 100.172 29.5337C100.554 29.7046 100.99 29.79 101.478 29.79C102.08 29.79 102.654 29.6761 103.199 29.4482C103.744 29.2122 104.216 28.846 104.615 28.3496L106.397 30.3882C106.129 30.7788 105.75 31.1572 105.262 31.5234C104.782 31.8815 104.204 32.1745 103.529 32.4023C102.853 32.6302 102.088 32.7441 101.234 32.7441ZM114.864 28.8257C114.864 28.5815 114.786 28.3659 114.632 28.1787C114.485 27.9915 114.217 27.8206 113.826 27.666C113.444 27.5114 112.902 27.3568 112.203 27.2021C111.543 27.0638 110.929 26.8848 110.359 26.665C109.79 26.4372 109.293 26.1646 108.87 25.8472C108.447 25.5216 108.117 25.1392 107.881 24.6997C107.645 24.2521 107.527 23.7435 107.527 23.1738C107.527 22.6204 107.645 22.0955 107.881 21.5991C108.125 21.1027 108.475 20.6632 108.931 20.2808C109.395 19.8983 109.956 19.5972 110.616 19.3774C111.283 19.1577 112.04 19.0479 112.886 19.0479C114.05 19.0479 115.055 19.231 115.901 19.5972C116.748 19.9552 117.399 20.4598 117.854 21.1108C118.31 21.7537 118.538 22.4902 118.538 23.3203H114.729C114.729 22.9785 114.664 22.6815 114.534 22.4292C114.404 22.1769 114.204 21.9816 113.936 21.8433C113.667 21.6968 113.313 21.6235 112.874 21.6235C112.532 21.6235 112.231 21.6846 111.971 21.8066C111.718 21.9206 111.519 22.0793 111.372 22.2827C111.234 22.4862 111.165 22.7222 111.165 22.9907C111.165 23.1779 111.206 23.3488 111.287 23.5034C111.377 23.6499 111.511 23.7882 111.69 23.9185C111.877 24.0405 112.117 24.1504 112.41 24.248C112.711 24.3457 113.077 24.4393 113.509 24.5288C114.428 24.6997 115.266 24.9398 116.023 25.249C116.788 25.5583 117.399 25.9855 117.854 26.5308C118.318 27.076 118.55 27.7962 118.55 28.6914C118.55 29.2773 118.416 29.8145 118.147 30.3027C117.887 30.791 117.509 31.2183 117.012 31.5845C116.516 31.9507 115.922 32.2355 115.23 32.439C114.538 32.6424 113.757 32.7441 112.886 32.7441C111.641 32.7441 110.587 32.5203 109.724 32.0728C108.862 31.6252 108.211 31.0636 107.771 30.3882C107.34 29.7046 107.124 29.0047 107.124 28.2886H110.701C110.717 28.728 110.827 29.0861 111.031 29.3628C111.242 29.6395 111.515 29.8429 111.849 29.9731C112.182 30.0952 112.557 30.1562 112.972 30.1562C113.387 30.1562 113.732 30.0993 114.009 29.9854C114.286 29.8714 114.497 29.7168 114.644 29.5215C114.79 29.318 114.864 29.0861 114.864 28.8257ZM126.955 28.8257C126.955 28.5815 126.878 28.3659 126.724 28.1787C126.577 27.9915 126.308 27.8206 125.918 27.666C125.535 27.5114 124.994 27.3568 124.294 27.2021C123.635 27.0638 123.021 26.8848 122.451 26.665C121.881 26.4372 121.385 26.1646 120.962 25.8472C120.539 25.5216 120.209 25.1392 119.973 24.6997C119.737 24.2521 119.619 23.7435 119.619 23.1738C119.619 22.6204 119.737 22.0955 119.973 21.5991C120.217 21.1027 120.567 20.6632 121.023 20.2808C121.487 19.8983 122.048 19.5972 122.707 19.3774C123.375 19.1577 124.132 19.0479 124.978 19.0479C126.142 19.0479 127.147 19.231 127.993 19.5972C128.839 19.9552 129.49 20.4598 129.946 21.1108C130.402 21.7537 130.63 22.4902 130.63 23.3203H126.821C126.821 22.9785 126.756 22.6815 126.626 22.4292C126.496 22.1769 126.296 21.9816 126.028 21.8433C125.759 21.6968 125.405 21.6235 124.966 21.6235C124.624 21.6235 124.323 21.6846 124.062 21.8066C123.81 21.9206 123.611 22.0793 123.464 22.2827C123.326 22.4862 123.257 22.7222 123.257 22.9907C123.257 23.1779 123.297 23.3488 123.379 23.5034C123.468 23.6499 123.603 23.7882 123.782 23.9185C123.969 24.0405 124.209 24.1504 124.502 24.248C124.803 24.3457 125.169 24.4393 125.6 24.5288C126.52 24.6997 127.358 24.9398 128.115 25.249C128.88 25.5583 129.49 25.9855 129.946 26.5308C130.41 27.076 130.642 27.7962 130.642 28.6914C130.642 29.2773 130.508 29.8145 130.239 30.3027C129.979 30.791 129.6 31.2183 129.104 31.5845C128.607 31.9507 128.013 32.2355 127.322 32.439C126.63 32.6424 125.849 32.7441 124.978 32.7441C123.733 32.7441 122.679 32.5203 121.816 32.0728C120.954 31.6252 120.303 31.0636 119.863 30.3882C119.432 29.7046 119.216 29.0047 119.216 28.2886H122.793C122.809 28.728 122.919 29.0861 123.122 29.3628C123.334 29.6395 123.607 29.8429 123.94 29.9731C124.274 30.0952 124.648 30.1562 125.063 30.1562C125.478 30.1562 125.824 30.0993 126.101 29.9854C126.378 29.8714 126.589 29.7168 126.736 29.5215C126.882 29.318 126.955 29.0861 126.955 28.8257ZM144.523 25.2612H139.457V23.9795H144.523C145.581 23.9795 146.439 23.8086 147.099 23.4668C147.766 23.1169 148.25 22.6449 148.551 22.0508C148.86 21.4567 149.015 20.7894 149.015 20.0488C149.015 19.3245 148.86 18.6572 148.551 18.0469C148.25 17.4365 147.766 16.9482 147.099 16.582C146.439 16.2077 145.581 16.0205 144.523 16.0205H139.982V32.5H138.48V14.7266H144.523C145.825 14.7266 146.919 14.9504 147.807 15.3979C148.702 15.8455 149.377 16.4681 149.833 17.2656C150.289 18.0632 150.516 18.9827 150.516 20.0244C150.516 21.1149 150.289 22.0549 149.833 22.8442C149.377 23.6255 148.706 24.2236 147.819 24.6387C146.932 25.0537 145.833 25.2612 144.523 25.2612ZM154.417 19.292V32.5H152.965V19.292H154.417ZM152.708 15.4712C152.708 15.1945 152.794 14.9626 152.965 14.7754C153.144 14.5801 153.388 14.4824 153.697 14.4824C154.006 14.4824 154.251 14.5801 154.43 14.7754C154.617 14.9626 154.71 15.1945 154.71 15.4712C154.71 15.7397 154.617 15.9717 154.43 16.167C154.251 16.3542 154.006 16.4478 153.697 16.4478C153.388 16.4478 153.144 16.3542 152.965 16.167C152.794 15.9717 152.708 15.7397 152.708 15.4712ZM159.283 13.75V32.5H157.83V13.75H159.283ZM161.719 26.1035V25.7007C161.719 24.7404 161.857 23.8534 162.134 23.0396C162.41 22.2257 162.805 21.5218 163.318 20.9277C163.839 20.3337 164.461 19.8739 165.185 19.5483C165.91 19.2147 166.715 19.0479 167.602 19.0479C168.498 19.0479 169.307 19.2147 170.032 19.5483C170.756 19.8739 171.378 20.3337 171.899 20.9277C172.42 21.5218 172.819 22.2257 173.096 23.0396C173.372 23.8534 173.511 24.7404 173.511 25.7007V26.1035C173.511 27.0638 173.372 27.9508 173.096 28.7646C172.819 29.5703 172.42 30.2702 171.899 30.8643C171.387 31.4583 170.768 31.9222 170.044 32.2559C169.32 32.5814 168.514 32.7441 167.627 32.7441C166.732 32.7441 165.922 32.5814 165.198 32.2559C164.473 31.9222 163.851 31.4583 163.33 30.8643C162.809 30.2702 162.41 29.5703 162.134 28.7646C161.857 27.9508 161.719 27.0638 161.719 26.1035ZM163.171 25.7007V26.1035C163.171 26.8278 163.269 27.5155 163.464 28.1665C163.66 28.8094 163.944 29.3831 164.319 29.8877C164.693 30.3841 165.157 30.7747 165.71 31.0596C166.264 31.3444 166.903 31.4868 167.627 31.4868C168.343 31.4868 168.974 31.3444 169.519 31.0596C170.072 30.7747 170.536 30.3841 170.911 29.8877C171.285 29.3831 171.566 28.8094 171.753 28.1665C171.948 27.5155 172.046 26.8278 172.046 26.1035V25.7007C172.046 24.9845 171.948 24.305 171.753 23.6621C171.566 23.0192 171.281 22.4455 170.898 21.9409C170.524 21.4364 170.06 21.0376 169.507 20.7446C168.953 20.4517 168.319 20.3052 167.602 20.3052C166.886 20.3052 166.252 20.4517 165.698 20.7446C165.153 21.0376 164.689 21.4364 164.307 21.9409C163.932 22.4455 163.647 23.0192 163.452 23.6621C163.265 24.305 163.171 24.9845 163.171 25.7007ZM180.781 19.292V20.4883H174.164V19.292H180.781ZM176.594 15.8984H178.046V29.2896C178.046 29.8999 178.128 30.3597 178.29 30.6689C178.453 30.9782 178.665 31.1857 178.925 31.2915C179.186 31.3973 179.466 31.4502 179.767 31.4502C179.987 31.4502 180.199 31.438 180.402 31.4136C180.606 31.381 180.789 31.3485 180.952 31.3159L181.013 32.5488C180.834 32.6058 180.602 32.6506 180.317 32.6831C180.032 32.7238 179.747 32.7441 179.462 32.7441C178.901 32.7441 178.404 32.6424 177.973 32.439C177.542 32.2274 177.204 31.8693 176.96 31.3647C176.716 30.8521 176.594 30.1562 176.594 29.2773V15.8984Z" fill="white"/>
<mask id="path-4-inside-1_5713_1027" fill="white">
<path d="M192.123 13H381.123V35H192.123V13Z"/>
</mask>
<path d="M193.123 35V13H191.123V35H193.123Z" fill="white" fill-opacity="0.2" mask="url(#path-4-inside-1_5713_1027)"/>
<path d="M204.709 29H203.089V20.324H204.709V29ZM213.966 20.324V29H213.138C213.01 29 212.902 28.98 212.814 28.94C212.73 28.896 212.648 28.824 212.568 28.724L208.038 22.94C208.062 23.204 208.074 23.448 208.074 23.672V29H206.652V20.324H207.498C207.566 20.324 207.624 20.328 207.672 20.336C207.724 20.34 207.768 20.352 207.804 20.372C207.844 20.388 207.882 20.414 207.918 20.45C207.954 20.482 207.994 20.526 208.038 20.582L212.586 26.39C212.574 26.25 212.564 26.112 212.556 25.976C212.548 25.84 212.544 25.714 212.544 25.598V20.324H213.966ZM221.958 21.65H219.342V29H217.728V21.65H215.112V20.324H221.958V21.65ZM224.713 21.608V24.014H227.749V25.256H224.713V27.71H228.565V29H223.093V20.324H228.565V21.608H224.713ZM235.078 27.668V29H229.996V20.324H231.61V27.668H235.078ZM241.312 27.668V29H236.23V20.324H237.844V27.668H241.312ZM244.084 29H242.464V20.324H244.084V29ZM253.179 24.65V28.16C252.739 28.484 252.269 28.722 251.769 28.874C251.273 29.022 250.741 29.096 250.173 29.096C249.465 29.096 248.823 28.986 248.247 28.766C247.675 28.546 247.185 28.24 246.777 27.848C246.373 27.456 246.061 26.988 245.841 26.444C245.621 25.9 245.511 25.306 245.511 24.662C245.511 24.01 245.617 23.412 245.829 22.868C246.041 22.324 246.341 21.856 246.729 21.464C247.121 21.072 247.595 20.768 248.151 20.552C248.707 20.336 249.331 20.228 250.023 20.228C250.375 20.228 250.703 20.256 251.007 20.312C251.315 20.368 251.599 20.446 251.859 20.546C252.123 20.642 252.363 20.76 252.579 20.9C252.795 21.04 252.993 21.194 253.173 21.362L252.711 22.094C252.639 22.21 252.545 22.282 252.429 22.31C252.313 22.334 252.187 22.304 252.051 22.22C251.919 22.144 251.787 22.068 251.655 21.992C251.523 21.916 251.375 21.85 251.211 21.794C251.051 21.738 250.869 21.692 250.665 21.656C250.465 21.62 250.233 21.602 249.969 21.602C249.541 21.602 249.153 21.674 248.805 21.818C248.461 21.962 248.167 22.168 247.923 22.436C247.679 22.704 247.491 23.026 247.359 23.402C247.227 23.778 247.161 24.198 247.161 24.662C247.161 25.158 247.231 25.602 247.371 25.994C247.515 26.382 247.715 26.712 247.971 26.984C248.231 27.252 248.543 27.458 248.907 27.602C249.271 27.742 249.677 27.812 250.125 27.812C250.445 27.812 250.731 27.778 250.983 27.71C251.235 27.642 251.481 27.55 251.721 27.434V25.862H250.629C250.525 25.862 250.443 25.834 250.383 25.778C250.327 25.718 250.299 25.646 250.299 25.562V24.65H253.179ZM256.354 21.608V24.014H259.39V25.256H256.354V27.71H260.206V29H254.734V20.324H260.206V21.608H256.354ZM268.95 20.324V29H268.122C267.994 29 267.886 28.98 267.798 28.94C267.714 28.896 267.632 28.824 267.552 28.724L263.022 22.94C263.046 23.204 263.058 23.448 263.058 23.672V29H261.636V20.324H262.482C262.55 20.324 262.608 20.328 262.656 20.336C262.708 20.34 262.752 20.352 262.788 20.372C262.828 20.388 262.866 20.414 262.902 20.45C262.938 20.482 262.978 20.526 263.022 20.582L267.57 26.39C267.558 26.25 267.548 26.112 267.54 25.976C267.532 25.84 267.528 25.714 267.528 25.598V20.324H268.95ZM276.942 21.65H274.326V29H272.712V21.65H270.096V20.324H276.942V21.65ZM282.252 21.608V24.014H285.288V25.256H282.252V27.71H286.104V29H280.632V20.324H286.104V21.608H282.252ZM294.585 29H292.977C292.865 29 292.775 28.972 292.707 28.916C292.643 28.86 292.591 28.796 292.551 28.724L290.541 25.394C290.509 25.494 290.471 25.58 290.427 25.652L288.501 28.724C288.453 28.792 288.397 28.856 288.333 28.916C288.273 28.972 288.193 29 288.093 29H286.587L289.467 24.536L286.701 20.324H288.309C288.421 20.324 288.501 20.34 288.549 20.372C288.601 20.4 288.649 20.448 288.693 20.516L290.667 23.696C290.707 23.596 290.755 23.496 290.811 23.396L292.623 20.546C292.667 20.47 292.715 20.414 292.767 20.378C292.819 20.342 292.885 20.324 292.965 20.324H294.507L291.717 24.47L294.585 29ZM298.406 24.686C298.702 24.686 298.96 24.65 299.18 24.578C299.4 24.502 299.582 24.396 299.726 24.26C299.874 24.12 299.984 23.952 300.056 23.756C300.128 23.556 300.164 23.334 300.164 23.09C300.164 22.858 300.128 22.648 300.056 22.46C299.984 22.272 299.876 22.112 299.732 21.98C299.588 21.848 299.406 21.748 299.186 21.68C298.966 21.608 298.706 21.572 298.406 21.572H297.2V24.686H298.406ZM298.406 20.324C298.986 20.324 299.488 20.392 299.912 20.528C300.336 20.664 300.686 20.854 300.962 21.098C301.238 21.342 301.442 21.634 301.574 21.974C301.71 22.314 301.778 22.686 301.778 23.09C301.778 23.51 301.708 23.896 301.568 24.248C301.428 24.596 301.218 24.896 300.938 25.148C300.658 25.4 300.306 25.596 299.882 25.736C299.462 25.876 298.97 25.946 298.406 25.946H297.2V29H295.586V20.324H298.406ZM304.635 21.608V24.014H307.671V25.256H304.635V27.71H308.487V29H303.015V20.324H308.487V21.608H304.635ZM312.54 24.452C312.844 24.452 313.108 24.414 313.332 24.338C313.56 24.262 313.746 24.158 313.89 24.026C314.038 23.89 314.148 23.73 314.22 23.546C314.292 23.362 314.328 23.16 314.328 22.94C314.328 22.5 314.182 22.162 313.89 21.926C313.602 21.69 313.16 21.572 312.564 21.572H311.532V24.452H312.54ZM316.692 29H315.234C314.958 29 314.758 28.892 314.634 28.676L312.81 25.898C312.742 25.794 312.666 25.72 312.582 25.676C312.502 25.632 312.382 25.61 312.222 25.61H311.532V29H309.918V20.324H312.564C313.152 20.324 313.656 20.386 314.076 20.51C314.5 20.63 314.846 20.8 315.114 21.02C315.386 21.24 315.586 21.504 315.714 21.812C315.842 22.116 315.906 22.452 315.906 22.82C315.906 23.112 315.862 23.388 315.774 23.648C315.69 23.908 315.566 24.144 315.402 24.356C315.242 24.568 315.042 24.754 314.802 24.914C314.566 25.074 314.296 25.2 313.992 25.292C314.096 25.352 314.192 25.424 314.28 25.508C314.368 25.588 314.448 25.684 314.52 25.796L316.692 29ZM323.466 21.65H320.85V29H319.236V21.65H316.62V20.324H323.466V21.65ZM331.776 21.902C331.728 21.986 331.676 22.048 331.62 22.088C331.568 22.124 331.502 22.142 331.422 22.142C331.338 22.142 331.246 22.112 331.146 22.052C331.05 21.988 330.934 21.918 330.798 21.842C330.662 21.766 330.502 21.698 330.318 21.638C330.138 21.574 329.924 21.542 329.676 21.542C329.452 21.542 329.256 21.57 329.088 21.626C328.92 21.678 328.778 21.752 328.662 21.848C328.55 21.944 328.466 22.06 328.41 22.196C328.354 22.328 328.326 22.474 328.326 22.634C328.326 22.838 328.382 23.008 328.494 23.144C328.61 23.28 328.762 23.396 328.95 23.492C329.138 23.588 329.352 23.674 329.592 23.75C329.832 23.826 330.078 23.908 330.33 23.996C330.582 24.08 330.828 24.18 331.068 24.296C331.308 24.408 331.522 24.552 331.71 24.728C331.898 24.9 332.048 25.112 332.16 25.364C332.276 25.616 332.334 25.922 332.334 26.282C332.334 26.674 332.266 27.042 332.13 27.386C331.998 27.726 331.802 28.024 331.542 28.28C331.286 28.532 330.972 28.732 330.6 28.88C330.228 29.024 329.802 29.096 329.322 29.096C329.046 29.096 328.774 29.068 328.506 29.012C328.238 28.96 327.98 28.884 327.732 28.784C327.488 28.684 327.258 28.564 327.042 28.424C326.826 28.284 326.634 28.128 326.466 27.956L326.94 27.182C326.98 27.126 327.032 27.08 327.096 27.044C327.16 27.004 327.228 26.984 327.3 26.984C327.4 26.984 327.508 27.026 327.624 27.11C327.74 27.19 327.878 27.28 328.038 27.38C328.198 27.48 328.384 27.572 328.596 27.656C328.812 27.736 329.07 27.776 329.37 27.776C329.83 27.776 330.186 27.668 330.438 27.452C330.69 27.232 330.816 26.918 330.816 26.51C330.816 26.282 330.758 26.096 330.642 25.952C330.53 25.808 330.38 25.688 330.192 25.592C330.004 25.492 329.79 25.408 329.55 25.34C329.31 25.272 329.066 25.198 328.818 25.118C328.57 25.038 328.326 24.942 328.086 24.83C327.846 24.718 327.632 24.572 327.444 24.392C327.256 24.212 327.104 23.988 326.988 23.72C326.876 23.448 326.82 23.114 326.82 22.718C326.82 22.402 326.882 22.094 327.006 21.794C327.134 21.494 327.318 21.228 327.558 20.996C327.798 20.764 328.094 20.578 328.446 20.438C328.798 20.298 329.202 20.228 329.658 20.228C330.17 20.228 330.642 20.308 331.074 20.468C331.506 20.628 331.874 20.852 332.178 21.14L331.776 21.902ZM335.362 21.608V24.014H338.398V25.256H335.362V27.71H339.214V29H333.742V20.324H339.214V21.608H335.362ZM343.266 24.452C343.57 24.452 343.834 24.414 344.058 24.338C344.286 24.262 344.472 24.158 344.616 24.026C344.764 23.89 344.874 23.73 344.946 23.546C345.018 23.362 345.054 23.16 345.054 22.94C345.054 22.5 344.908 22.162 344.616 21.926C344.328 21.69 343.886 21.572 343.29 21.572H342.258V24.452H343.266ZM347.418 29H345.96C345.684 29 345.484 28.892 345.36 28.676L343.536 25.898C343.468 25.794 343.392 25.72 343.308 25.676C343.228 25.632 343.108 25.61 342.948 25.61H342.258V29H340.644V20.324H343.29C343.878 20.324 344.382 20.386 344.802 20.51C345.226 20.63 345.572 20.8 345.84 21.02C346.112 21.24 346.312 21.504 346.44 21.812C346.568 22.116 346.632 22.452 346.632 22.82C346.632 23.112 346.588 23.388 346.5 23.648C346.416 23.908 346.292 24.144 346.128 24.356C345.968 24.568 345.768 24.754 345.528 24.914C345.292 25.074 345.022 25.2 344.718 25.292C344.822 25.352 344.918 25.424 345.006 25.508C345.094 25.588 345.174 25.684 345.246 25.796L347.418 29ZM355.52 20.324L352.016 29H350.558L347.054 20.324H348.35C348.49 20.324 348.604 20.358 348.692 20.426C348.78 20.494 348.846 20.582 348.89 20.69L350.936 25.982C351.004 26.154 351.068 26.344 351.128 26.552C351.192 26.756 351.252 26.97 351.308 27.194C351.356 26.97 351.408 26.756 351.464 26.552C351.52 26.344 351.582 26.154 351.65 25.982L353.684 20.69C353.716 20.598 353.778 20.514 353.87 20.438C353.966 20.362 354.082 20.324 354.218 20.324H355.52ZM358.038 29H356.418V20.324H358.038V29ZM365.938 26.954C366.026 26.954 366.104 26.988 366.172 27.056L366.808 27.746C366.456 28.182 366.022 28.516 365.506 28.748C364.994 28.98 364.378 29.096 363.658 29.096C363.014 29.096 362.434 28.986 361.918 28.766C361.406 28.546 360.968 28.24 360.604 27.848C360.24 27.456 359.96 26.988 359.764 26.444C359.572 25.9 359.476 25.306 359.476 24.662C359.476 24.01 359.58 23.414 359.788 22.874C359.996 22.33 360.288 21.862 360.664 21.47C361.044 21.078 361.496 20.774 362.02 20.558C362.544 20.338 363.124 20.228 363.76 20.228C364.392 20.228 364.952 20.332 365.44 20.54C365.932 20.748 366.35 21.02 366.694 21.356L366.154 22.106C366.122 22.154 366.08 22.196 366.028 22.232C365.98 22.268 365.912 22.286 365.824 22.286C365.764 22.286 365.702 22.27 365.638 22.238C365.574 22.202 365.504 22.16 365.428 22.112C365.352 22.06 365.264 22.004 365.164 21.944C365.064 21.884 364.948 21.83 364.816 21.782C364.684 21.73 364.53 21.688 364.354 21.656C364.182 21.62 363.982 21.602 363.754 21.602C363.366 21.602 363.01 21.672 362.686 21.812C362.366 21.948 362.09 22.148 361.858 22.412C361.626 22.672 361.446 22.992 361.318 23.372C361.19 23.748 361.126 24.178 361.126 24.662C361.126 25.15 361.194 25.584 361.33 25.964C361.47 26.344 361.658 26.664 361.894 26.924C362.13 27.184 362.408 27.384 362.728 27.524C363.048 27.66 363.392 27.728 363.76 27.728C363.98 27.728 364.178 27.716 364.354 27.692C364.534 27.668 364.698 27.63 364.846 27.578C364.998 27.526 365.14 27.46 365.272 27.38C365.408 27.296 365.542 27.194 365.674 27.074C365.714 27.038 365.756 27.01 365.8 26.99C365.844 26.966 365.89 26.954 365.938 26.954ZM369.534 21.608V24.014H372.57V25.256H369.534V27.71H373.386V29H367.914V20.324H373.386V21.608H369.534ZM379.436 21.902C379.388 21.986 379.336 22.048 379.28 22.088C379.228 22.124 379.162 22.142 379.082 22.142C378.998 22.142 378.906 22.112 378.806 22.052C378.71 21.988 378.594 21.918 378.458 21.842C378.322 21.766 378.162 21.698 377.978 21.638C377.798 21.574 377.584 21.542 377.336 21.542C377.112 21.542 376.916 21.57 376.748 21.626C376.58 21.678 376.438 21.752 376.322 21.848C376.21 21.944 376.126 22.06 376.07 22.196C376.014 22.328 375.986 22.474 375.986 22.634C375.986 22.838 376.042 23.008 376.154 23.144C376.27 23.28 376.422 23.396 376.61 23.492C376.798 23.588 377.012 23.674 377.252 23.75C377.492 23.826 377.738 23.908 377.99 23.996C378.242 24.08 378.488 24.18 378.728 24.296C378.968 24.408 379.182 24.552 379.37 24.728C379.558 24.9 379.708 25.112 379.82 25.364C379.936 25.616 379.994 25.922 379.994 26.282C379.994 26.674 379.926 27.042 379.79 27.386C379.658 27.726 379.462 28.024 379.202 28.28C378.946 28.532 378.632 28.732 378.26 28.88C377.888 29.024 377.462 29.096 376.982 29.096C376.706 29.096 376.434 29.068 376.166 29.012C375.898 28.96 375.64 28.884 375.392 28.784C375.148 28.684 374.918 28.564 374.702 28.424C374.486 28.284 374.294 28.128 374.126 27.956L374.6 27.182C374.64 27.126 374.692 27.08 374.756 27.044C374.82 27.004 374.888 26.984 374.96 26.984C375.06 26.984 375.168 27.026 375.284 27.11C375.4 27.19 375.538 27.28 375.698 27.38C375.858 27.48 376.044 27.572 376.256 27.656C376.472 27.736 376.73 27.776 377.03 27.776C377.49 27.776 377.846 27.668 378.098 27.452C378.35 27.232 378.476 26.918 378.476 26.51C378.476 26.282 378.418 26.096 378.302 25.952C378.19 25.808 378.04 25.688 377.852 25.592C377.664 25.492 377.45 25.408 377.21 25.34C376.97 25.272 376.726 25.198 376.478 25.118C376.23 25.038 375.986 24.942 375.746 24.83C375.506 24.718 375.292 24.572 375.104 24.392C374.916 24.212 374.764 23.988 374.648 23.72C374.536 23.448 374.48 23.114 374.48 22.718C374.48 22.402 374.542 22.094 374.666 21.794C374.794 21.494 374.978 21.228 375.218 20.996C375.458 20.764 375.754 20.578 376.106 20.438C376.458 20.298 376.862 20.228 377.318 20.228C377.83 20.228 378.302 20.308 378.734 20.468C379.166 20.628 379.534 20.852 379.838 21.14L379.436 21.902Z" fill="white"/>
<defs>
<filter id="filter0_i_5713_1027" x="0.804321" y="8.84082" width="30.3191" height="30.3193" filterUnits="userSpaceOnUse" color-interpolation-filters="sRGB">
<feFlood flood-opacity="0" result="BackgroundImageFix"/>
<feBlend mode="normal" in="SourceGraphic" in2="BackgroundImageFix" result="shape"/>
<feColorMatrix in="SourceAlpha" type="matrix" values="0 0 0 0 0 0 0 0 0 0 0 0 0 0 0 0 0 0 127 0" result="hardAlpha"/>
<feOffset dy="1"/>
<feComposite in2="hardAlpha" operator="arithmetic" k2="-1" k3="1"/>
<feColorMatrix type="matrix" values="0 0 0 0 0 0 0 0 0 0 0 0 0 0 0 0 0 0 0.15 0"/>
<feBlend mode="normal" in2="shape" result="effect1_innerShadow_5713_1027"/>
</filter>
</defs>
</svg>
