<svg width="296" height="340" viewBox="0 0 296 340" fill="none" xmlns="http://www.w3.org/2000/svg">
<g filter="url(#filter0_i_5779_1021)">
<path fill-rule="evenodd" clip-rule="evenodd" d="M245.777 302.815C217.898 279.068 206.061 243.525 203.572 227.486C203.572 245.888 210.836 271.272 214.468 281.663C172.579 248.733 175.626 209.83 182.386 194.495C200.546 154.543 246.248 166.549 266.83 177.546C250.331 156.424 233.832 154.028 216.075 151.448C215.541 151.37 215.005 151.293 214.468 151.214C187.519 150.124 168.564 136.686 165.134 129.119C149.048 101.568 164.131 67.074 176.907 47.8802C244.488 61.3154 295.428 120.946 295.428 192.475C295.428 236.383 276.233 275.807 245.777 302.815ZM171.429 46.8987C143.568 69.9687 132.729 112.94 131.84 131.238C127.724 193.708 155.953 239.996 170.582 255.331C191.053 281.566 222.441 297.904 242.684 305.483C217.071 326.966 184.046 339.903 148 339.903C113.824 339.903 82.3632 328.274 57.3602 308.756L140.012 236.566L156.659 247.159C141.828 230.412 115.133 180.754 126.998 116.105L113.983 154.543H29.8417L97.9417 205.089L53.4585 305.603C21.1327 278.559 0.572281 237.918 0.572281 192.475C0.572281 111.053 66.5779 45.0474 148 45.0474C155.973 45.0474 163.799 45.6803 171.429 46.8987ZM199.335 130.33C188.303 130.33 179.359 121.386 179.359 110.354C179.359 99.3214 188.303 90.3778 199.335 90.3778C210.367 90.3778 219.311 99.3214 219.311 110.354C219.311 121.386 210.367 130.33 199.335 130.33Z" fill="url(#paint0_linear_5779_1021)"/>
</g>
<path d="M198.901 30.2731L195.929 27.5966L198.901 30.2731C202.142 26.6736 198.884 21.0297 194.146 22.0367L179.23 25.2072L171.605 12.001C169.184 7.80637 162.809 9.16121 162.303 13.9784L160.709 29.144L145.793 32.3145C141.055 33.3216 140.374 39.8029 144.799 41.773L158.729 47.9754L157.135 63.1411C156.629 67.9581 162.583 70.6089 165.824 67.0094L176.027 55.677L189.958 61.8794C194.383 63.8495 198.744 59.0064 196.322 54.8117L188.698 41.6055L198.901 30.2731Z" fill="url(#paint1_linear_5779_1021)" stroke="white" stroke-width="8"/>
<defs>
<filter id="filter0_i_5779_1021" x="0.572281" y="45.0474" width="294.855" height="294.855" filterUnits="userSpaceOnUse" color-interpolation-filters="sRGB">
<feFlood flood-opacity="0" result="BackgroundImageFix"/>
<feBlend mode="normal" in="SourceGraphic" in2="BackgroundImageFix" result="shape"/>
<feColorMatrix in="SourceAlpha" type="matrix" values="0 0 0 0 0 0 0 0 0 0 0 0 0 0 0 0 0 0 127 0" result="hardAlpha"/>
<feOffset dy="2"/>
<feComposite in2="hardAlpha" operator="arithmetic" k2="-1" k3="1"/>
<feColorMatrix type="matrix" values="0 0 0 0 0 0 0 0 0 0 0 0 0 0 0 0 0 0 0.15 0"/>
<feBlend mode="normal" in2="shape" result="effect1_innerShadow_5779_1021"/>
</filter>
<linearGradient id="paint0_linear_5779_1021" x1="0.572281" y1="212.366" x2="295.428" y2="212.366" gradientUnits="userSpaceOnUse">
<stop stop-color="#4968DC"/>
<stop offset="1" stop-color="#A868B2"/>
</linearGradient>
<linearGradient id="paint1_linear_5779_1021" x1="154.651" y1="16.5839" x2="183.876" y2="67.2028" gradientUnits="userSpaceOnUse">
<stop stop-color="#4968DC"/>
<stop offset="1" stop-color="#A868B2"/>
</linearGradient>
</defs>
</svg>
